<svg xmlns="http://www.w3.org/2000/svg" version="1.0" width="513.000000pt" height="93.000000pt" viewBox="0 0 513.000000 93.000000" preserveAspectRatio="xMidYMid meet">

<g transform="translate(0.000000,93.000000) scale(0.100000,-0.100000)" fill="#000000" stroke="none">
<path d="M0 465 l0 -465 2565 0 2565 0 0 465 0 465 -2565 0 -2565 0 0 -465z m720 145 l0 -40 -172 -2 -173 -3 -3 -127 -3 -128 131 0 130 0 0 40 0 40 -40 0 -40 0 0 45 0 45 85 0 86 0 -3 -127 -3 -128 -212 -3 -213 -2 0 215 0 215 215 0 215 0 0 -40z m510 -90 l0 -129 -70 -3 -70 -3 65 -74 c36 -41 65 -78 65 -83 0 -4 -20 -8 -44 -8 -43 0 -47 3 -121 85 -74 82 -79 85 -121 85 l-43 0 -3 -82 -3 -83 -40 0 -40 0 -3 213 -2 212 215 0 215 0 0 -130z m428 -78 c46 -114 83 -211 82 -215 0 -4 -46 -6 -102 -5 l-103 3 -3 43 -3 42 40 0 c23 0 41 3 41 7 0 18 -74 192 -79 188 -3 -3 -31 -67 -61 -143 l-55 -137 -47 -3 c-27 -2 -48 0 -48 3 0 5 109 279 155 388 14 34 18 37 58 37 l42 0 83 -208z m146 106 c22 -57 48 -123 59 -148 l19 -45 58 145 58 145 46 3 c33 2 46 -1 45 -10 0 -7 -37 -103 -82 -213 l-82 -200 -44 0 -43 0 -84 210 c-46 115 -84 211 -84 212 0 2 21 3 48 3 l47 0 39 -102z m464 -110 l-3 -213 -42 -3 -43 -3 0 215 0 216 45 0 45 0 -2 -212z m512 172 l0 -40 -85 0 -85 0 0 -176 0 -175 -42 3 -43 3 -3 173 -2 172 -85 0 -85 0 0 40 0 40 215 0 215 0 0 -40z m302 -160 c43 -107 81 -203 84 -212 5 -16 -4 -18 -100 -18 l-106 0 0 45 0 45 41 0 c22 0 39 4 37 8 -1 4 -19 49 -38 100 -19 51 -37 92 -41 92 -3 0 -30 -64 -61 -142 l-55 -143 -46 -3 c-26 -2 -47 0 -47 5 0 4 37 101 83 216 l82 208 44 -3 45 -3 78 -195z m608 160 l0 -40 -170 0 -170 0 0 -45 0 -45 170 0 170 0 0 -130 0 -130 -215 0 -215 0 0 45 0 45 170 0 170 0 0 40 0 40 -170 0 -170 0 0 130 0 130 215 0 215 0 0 -40z m170 -45 l0 -85 -45 0 -45 0 0 85 0 85 45 0 45 0 0 -85z m510 -45 l0 -130 -170 0 -170 0 0 -40 0 -40 170 0 170 0 0 -45 0 -45 -212 2 -213 3 -3 128 -3 127 176 0 176 0 -3 43 -3 42 -172 3 -173 2 0 40 0 40 215 0 215 0 0 -130z m520 -85 l0 -215 -215 0 -215 0 0 45 0 45 170 0 170 0 0 40 0 40 -170 0 -170 0 0 45 0 45 170 0 170 0 0 45 0 45 -170 0 -170 0 0 40 0 40 215 0 215 0 0 -215z"/>
<path d="M890 525 l0 -45 131 0 130 0 -3 43 -3 42 -127 3 -128 3 0 -46z"/>
</g>
</svg>